<svg width="18" height="18" viewBox="0 0 18 18" fill="none" xmlns="http://www.w3.org/2000/svg">
<path d="M2.25 8.99997C2.25 8.80106 2.32902 8.61029 2.46967 8.46964C2.61032 8.32899 2.80109 8.24997 3 8.24997H13.1895L9.219 4.28097C9.14927 4.21124 9.09395 4.12846 9.05621 4.03735C9.01848 3.94624 8.99905 3.84859 8.99905 3.74997C8.99905 3.65135 9.01848 3.5537 9.05621 3.4626C9.09395 3.37149 9.14927 3.2887 9.219 3.21897C9.28873 3.14924 9.37152 3.09392 9.46262 3.05619C9.55373 3.01845 9.65138 2.99902 9.75 2.99902C9.84862 2.99902 9.94627 3.01845 10.0374 3.05619C10.1285 3.09392 10.2113 3.14924 10.281 3.21897L15.531 8.46897C15.6008 8.53864 15.6563 8.6214 15.6941 8.71252C15.7319 8.80364 15.7513 8.90132 15.7513 8.99997C15.7513 9.09862 15.7319 9.1963 15.6941 9.28742C15.6563 9.37854 15.6008 9.4613 15.531 9.53097L10.281 14.781C10.1402 14.9218 9.94916 15.0009 9.75 15.0009C9.55084 15.0009 9.35983 14.9218 9.219 14.781C9.07817 14.6401 8.99905 14.4491 8.99905 14.25C8.99905 14.0508 9.07817 13.8598 9.219 13.719L13.1895 9.74997H3C2.80109 9.74997 2.61032 9.67095 2.46967 9.5303C2.32902 9.38965 2.25 9.19888 2.25 8.99997Z" fill="white"/>
</svg>
