<svg width="20" height="20" viewBox="0 0 20 20" fill="none" xmlns="http://www.w3.org/2000/svg">
<path fill-rule="evenodd" clip-rule="evenodd" d="M6.80992 13.1908C10.0141 16.395 12.9833 16.7458 13.8549 16.7783C14.9083 16.8167 15.9833 15.9567 16.4483 15.0758C15.7066 14.2058 14.7408 13.5308 13.6833 12.7992C13.0591 13.4225 12.2899 14.5808 11.2658 14.1658C10.6833 13.9317 9.24492 13.2692 7.98825 12.0117C6.73159 10.7542 6.06909 9.31666 5.83325 8.735C5.41825 7.70916 6.57992 6.93833 7.20409 6.31416C6.47242 5.23916 5.80909 4.24833 4.94075 3.54416C4.04742 4.01083 3.18242 5.0775 3.22159 6.145C3.25408 7.01666 3.60492 9.98583 6.80992 13.1908ZM13.7933 18.4442C12.5933 18.4 9.19242 17.93 5.63075 14.3692C2.06992 10.8075 1.60075 7.4075 1.55575 6.20666C1.48909 4.37666 2.89075 2.59916 4.50992 1.905C4.7049 1.8208 4.91842 1.78875 5.12953 1.81198C5.34064 1.83521 5.54208 1.91292 5.71409 2.0375C7.05409 3.015 7.97825 4.49583 8.77242 5.65583C8.93763 5.89704 9.01331 6.18841 8.98637 6.47953C8.95944 6.77065 8.83158 7.04319 8.62492 7.25L7.49492 8.38083C7.75742 8.96 8.29158 9.95833 9.16658 10.8333C10.0416 11.7083 11.0399 12.2425 11.6199 12.505L12.7491 11.375C12.9564 11.1675 13.2302 11.0395 13.5224 11.0134C13.8146 10.9874 14.1066 11.0649 14.3474 11.2325C15.5308 12.0525 16.9208 12.9633 17.9341 14.2608C18.0688 14.4341 18.1545 14.6403 18.1822 14.858C18.2099 15.0757 18.1786 15.2969 18.0916 15.4983C17.3941 17.1258 15.6291 18.5117 13.7933 18.4442Z" fill="white"/>
</svg>
