<svg width="20" height="20" viewBox="0 0 20 20" fill="none" xmlns="http://www.w3.org/2000/svg">
<path fill-rule="evenodd" clip-rule="evenodd" d="M10.0001 6.66667C9.07961 6.66667 8.33341 7.41286 8.33341 8.33333C8.33341 9.25381 9.07961 10 10.0001 10C10.9206 10 11.6667 9.25381 11.6667 8.33333C11.6667 7.41286 10.9206 6.66667 10.0001 6.66667ZM6.66675 8.33333C6.66675 6.49238 8.15913 5 10.0001 5C11.841 5 13.3334 6.49238 13.3334 8.33333C13.3334 10.1743 11.841 11.6667 10.0001 11.6667C8.15913 11.6667 6.66675 10.1743 6.66675 8.33333Z" fill="white"/>
<path fill-rule="evenodd" clip-rule="evenodd" d="M4.6967 3.03004C6.10322 1.62352 8.01088 0.833344 10 0.833344C11.9891 0.833344 13.8968 1.62352 15.3033 3.03004C16.7098 4.43657 17.5 6.34422 17.5 8.33334C17.5 9.18052 17.4101 9.92679 17.1758 10.6337C16.9403 11.3443 16.5726 11.9736 16.0669 12.6045C16.0602 12.6128 16.0534 12.621 16.0464 12.6291L10.6297 18.8791C10.4715 19.0618 10.2417 19.1667 10 19.1667C9.75832 19.1667 9.52854 19.0618 9.37026 18.8791L3.95359 12.6291C3.9466 12.621 3.93975 12.6128 3.93307 12.6045C3.42745 11.9736 3.05974 11.3443 2.8242 10.6337C2.58989 9.92679 2.5 9.18052 2.5 8.33334C2.5 6.34422 3.29018 4.43657 4.6967 3.03004ZM10 2.50001C8.4529 2.50001 6.96917 3.11459 5.87521 4.20855C4.78125 5.30252 4.16667 6.78625 4.16667 8.33334C4.16667 9.06283 4.24428 9.62073 4.40622 10.1093C4.56564 10.5902 4.82013 11.0441 5.22385 11.55L10 17.0609L14.7762 11.55C15.1799 11.0441 15.4344 10.5902 15.5938 10.1093C15.7557 9.62073 15.8333 9.06283 15.8333 8.33334C15.8333 6.78625 15.2188 5.30252 14.1248 4.20855C13.0308 3.11459 11.5471 2.50001 10 2.50001Z" fill="white"/>
</svg>
